<svg version="1.2" xmlns="http://www.w3.org/2000/svg" viewBox="0 0 1500 500" width="1500" height="500">
	<title>New Project</title>
	<style>
		.s0 { fill: #ffffff } 
		.s1 { fill: #5a5a5a } 
	</style>
	<rect width="1500" height="500" id="Color Fill 1" style="fill: #000000"/>
	<path id="IMAGE CLEANER" class="s0" aria-label="IMAGE CLEANER"  d="m209.7 196.8q2.5 0 10.2 0 0 0 0 0 0 26.8 0 107.2 0 0 0 0-2.7 0-10.2 0-0.1 0-0.1 0 0-26.8 0-107.2 0 0 0.1 0zm35.6 0q3.4 0 13.5 0 0.3 0 4 9.1 11.3 27.6 34 82.9 0 0 0.1 0 9.4-23 37.6-92 3.6 0 13.8 0 0 0 0.2 0.1 0 26.8 0 107 0 0-0.2 0.1-2.6 0-10.4 0 0 0-0.1-0.1 0-22 0-87.5-0.2 0-0.2 0-8.9 21.8-35.9 87.6 0 0-0.1 0-2.4 0-9.5 0-0.3 0-3.3-7.5-0.1-0.1-24.3-59.3-7.4-18-8.6-20.9 0 0 0 0 0 21.9 0 87.6 0 0-0.2 0.1-2.6 0-10.4 0-0.1 0-0.3-0.1 0-26.9 0-107 0 0 0.3-0.1zm270.7 0q0.3 0 1.1 0 18.9 0 34 15.2 5.8 6.5 8.7 12 0 0.3 0.3 0.9-8.6 4.7-9 4.7-0.2 0-0.2 0-1.6-4.1-7.2-10.6-11.8-12-26.9-12-0.2 0-0.6 0-16.6 0-29 14.4-10 13-10 28.7 0 0.1 0 0.6 0 15.8 10 28.5 12.3 14.5 29.3 14.5 14.2 0 25.8-10.5 5.8-6.2 7.4-9.8 2.1-3.1 4.3-9.7 0.6-2 1.2-5.3-9.9 0-29.3 0-0.2 0-0.3-0.1 0-2.5 0-10 0 0 0.3-0.1 9.9 0 40.2 0 0 0 0.2 0.1 0 8.4-2.2 17.6-5.4 17.6-18.9 28.3-13.3 9.8-28.7 9.8-18.9 0-33.7-14.2-6.2-6.5-8.8-11.7-7.2-13.1-7.2-27.3 0-0.3 0-0.7 0-21.1 14.4-37.4 6.1-6.4 10.5-8.9 11.7-7 24.3-7zm224.8 0q0.1 0 0.7 0 18.7 0 33.7 15.2 6.7 7.8 8.3 11.9-8.8 4.5-9.2 4.5-1.8-3.5-4.8-7.6-12.3-13.8-28.2-13.8-0.1 0-0.4 0-16.6 0-28.7 14.8-9.5 12.9-9.5 28.3 0 0.1 0 0.6 0 18 12.3 31.6 11.4 11.4 26.3 11.4 16.1 0 28.5-14.3 2.9-4.1 4.6-7.5 3.1 1.6 9.1 4.7-1.6 4.5-8.8 12.8-14.9 14.6-33.8 14.6-20.1 0-35.5-16.8-13.1-16.5-13.1-36.5 0-0.2 0-0.6 0-22.1 15.3-38.8 14.8-14.5 33.1-14.5z"/>
	<path id="IMAGE CLEANER" class="s1" aria-label="IMAGE CLEANER"  d="m416.3 196.8q0.1 0 2.3 5.5 12.8 33.1 38.6 99.2 0.2 0.6 1 2.5 0 0-0.2 0-2.7 0-11 0-0.4-0.6-6.5-16.6-3.1-8.2-3.6-8.6-17.4 0-52.3 0-0.4 0.6-7.7 19.8-1.9 5-2.2 5.4-3.7 0-10.7 0 0 0-0.2 0 0 0-0.1 0 10.5-26.8 41.9-107.2 2.6 0 10.7 0zm-5.4 14.6q-5.6 14.2-22.3 57 11.1 0 44.5 0-5.5-14.2-22.2-57 0 0 0 0zm176-14.6q13.2 0 53.2 0 0 0 0.2 0 0 2.6 0 10.1-0.2 0.1-0.2 0.1-10.8 0-43.1 0 0 9.5 0 38.3 8.7 0 34.5 0 0 0 0.1 0.1 0 2.5 0 10-0.1 0.1-0.1 0.1-8.7 0-34.5 0 0 9.5 0 38.2 10.7 0 43.1 0 0 0 0.2 0.2 0 2.5 0 10.1-0.2 0-0.2 0-13.3 0-53.2 0-0.1 0-0.1 0 0-26.8 0-107.2 0 0 0.1 0zm214.2 0q2.5 0 10.1 0 0 0 0 0 0 24.3 0 96.9 11.4 0 45.9 0 0 2.5 0 10.3-14 0-56 0-0.1 0-0.1 0 0-26.8 0-107.2 0 0 0.1 0zm70.2 0q13.2 0 53.1 0 0 0 0.2 0 0 2.6 0 10.1-0.2 0.1-0.2 0.1-10.8 0-43 0 0 9.5 0 38.3 8.6 0 34.4 0 0 0 0.1 0.1 0 2.5 0 10-0.1 0.1-0.1 0.1-8.6 0-34.4 0 0 9.5 0 38.2 10.7 0 43 0 0 0 0.2 0.2 0 2.5 0 10.1-0.2 0-0.2 0-13.3 0-53.1 0-0.2 0-0.2 0 0-26.8 0-107.2 0 0 0.2 0zm116.1 0q0.2 0 2.4 5.5 12.7 33.1 38.5 99.2 0.3 0.6 1 2.5 0 0-0.1 0-2.8 0-11 0-0.4-0.6-6.6-16.6-3.1-8.2-3.5-8.6-17.4 0-52.3 0-0.5 0.6-7.8 19.8-1.9 5-2.2 5.4-3.6 0-10.7 0 0 0-0.1 0 0 0-0.2 0 10.6-26.8 41.9-107.2 2.7 0 10.7 0zm-5.4 14.6q-5.6 14.2-22.3 57 11.2 0 44.6 0-5.6-14.2-22.3-57 0 0 0 0zm62.3-14.6q3 0 12.4 0 0.6 0.6 39.3 63.8 5.5 9.1 16.5 27.1 0 0 0.2 0 0-22.7 0-90.8 0 0 0.1-0.1 2.5 0 10 0 0 0 0.1 0.1 0 26.8 0 107 0 0-0.1 0.1-3.1 0-12.2 0-1-1.2-5.4-8.8-0.4-0.4-39.3-64-3.6-6.2-11.1-18.2 0 22.7 0 90.9-0.1 0-0.3 0.1-2.6 0-10.2 0-0.2 0-0.3-0.1 0-26.9 0-107 0 0 0.3-0.1zm104 0q13.2 0 53.1 0 0 0 0.2 0 0 2.6 0 10.1-0.2 0.1-0.2 0.1-10.8 0-43 0 0 9.5 0 38.3 8.6 0 34.4 0 0 0 0.1 0.1 0 2.5 0 10-0.1 0.1-0.1 0.1-8.6 0-34.4 0 0 9.5 0 38.2 10.7 0 43 0 0 0 0.2 0.2 0 2.5 0 10.1-0.2 0-0.2 0-13.3 0-53.1 0-0.2 0-0.2 0 0-26.8 0-107.2 0 0 0.2 0zm73.9 0q8.4 0 33.6 0 15.5 0 26.8 12.3 8.2 10.4 8.2 22.1 0 0.4 0 1.2 0 14.2-11.4 25.3-6.2 5.1-12 7 7.6 13.1 22.5 39.2 0 0-0.1 0.1-3 0-11.9 0-0.6-0.6-8.8-15.4-4.1-7.3-12.3-22-6.1 0-24.6 0 0 9.4 0 37.3 0 0-0.1 0.1-2.5 0-9.9 0-0.1 0-0.2-0.1 0-26.9 0-107 0 0 0.2-0.1zm10 10.2q0 12.3 0 49.4 5.9 0 23.6 0 12.1 0 20.4-10.4 4.3-6.6 4.3-13.9 0-0.3 0-0.8 0-11.1-9.6-19.1-6.9-5.2-15.3-5.2-7.7 0-23.4 0z"/>
</svg>